<?xml version="1.0" encoding="UTF-8"?>
<svg width="43px" height="22px" viewBox="0 0 43 22" version="1.1" xmlns="http://www.w3.org/2000/svg" xmlns:xlink="http://www.w3.org/1999/xlink">
    <!-- Generator: Sketch 46.2 (44496) - http://www.bohemiancoding.com/sketch -->
    <title>custom-timeline-labresults</title>
    <desc>Created with Sketch.</desc>
    <defs></defs>
    <g id="Timeline" stroke="none" stroke-width="1" fill="none" fill-rule="evenodd">
        <g id="Timeline---Details" transform="translate(-842.000000, -1225.000000)">
            <g id="Content" transform="translate(496.000000, 126.000000)">
                <g id="Timeline" transform="translate(0.000000, 129.000000)">
                    <g id="Reports" transform="translate(11.000000, 78.000000)">
                        <g id="ABG" transform="translate(198.000000, 883.000000)">
                            <g id="Group-8" transform="translate(137.000000, 0.000000)">
                                <g id="Group" transform="translate(-2.000000, 2.000000)">
                                    <g id="custom-timeline-labresults" transform="translate(0.378947, 0.352000)">
                                        <rect id="Rectangle-4" x="2" y="0" width="43" height="40"></rect>
                                        <path d="M8.75734059,20.3502533 L14.5105122,16.4823517 C14.4303658,16.1598425 14.3878085,15.822299 14.3878085,15.4747316 C14.3878085,13.1929016 16.2220765,11.343113 18.4847607,11.343113 C20.7474448,11.343113 22.5817128,13.1929016 22.5817128,15.4747316 C22.5817128,16.1391468 22.4261967,16.766932 22.1498708,17.323087 L25.5883134,20.7906242 C26.1370263,20.5154815 26.7555797,20.3607627 27.4099663,20.3607627 C27.9401309,20.3607627 28.4467754,20.4623164 28.9118155,20.6471865 L36.3296986,13.1665367 C35.9313233,12.529389 35.7008227,11.7747938 35.7008227,10.9659068 C35.7008227,8.68407678 37.5350907,6.8342881 39.7977749,6.8342881 C40.9731799,6.8342881 42.0329756,7.3334591 42.7800874,8.13305908 L43.9603865,7.47070636 C44.6105879,7.10583055 45.4334705,7.33713258 45.7983463,7.9873339 C46.1632221,8.63753522 45.9319201,9.46041782 45.2817187,9.82529364 L43.8799033,10.6119555 C43.8897189,10.7286248 43.894727,10.846676 43.894727,10.9659068 C43.894727,13.2477367 42.060459,15.0975254 39.7977749,15.0975254 C39.3239861,15.0975254 38.8689814,15.0164211 38.4456675,14.8672287 L30.9554921,22.4207826 C31.3061388,23.0297952 31.5069185,23.7374426 31.5069185,24.4923814 C31.5069185,26.7742113 29.6726505,28.624 27.4099663,28.624 C25.1472822,28.624 23.3130142,26.7742113 23.3130142,24.4923814 C23.3130142,23.8604582 23.4536917,23.2616701 23.7051873,22.7261292 L20.2247904,19.2162828 C19.6966515,19.4665042 19.1069005,19.6063503 18.4847607,19.6063503 C17.5424293,19.6063503 16.6744043,19.2855155 15.9822351,18.7462548 L10.1166081,22.6895484 C10.1673213,22.9492491 10.1939043,23.2176846 10.1939043,23.4923814 C10.1939043,25.7742113 8.35963631,27.624 6.09695213,27.624 C5.22791259,27.624 4.42207015,27.3511316 3.75907489,26.8857187 L2.34691783,27.7862529 C1.7182781,28.1871372 0.883683988,28.0025049 0.482799709,27.3738652 C0.0819154302,26.7452255 0.266547704,25.9106314 0.895187435,25.5097471 L2.17575275,24.6932945 C2.06145831,24.3132627 2,23.9100599 2,23.4923814 C2,21.2105514 3.83426795,19.3607627 6.09695213,19.3607627 C7.11238484,19.3607627 8.04153552,19.7333058 8.75734059,20.3502533 Z" id="Path-2" fill="#FFFFFF" fill-rule="nonzero"></path>
                                    </g>
                                </g>
                            </g>
                        </g>
                    </g>
                </g>
            </g>
        </g>
    </g>
</svg>